# Blender v3.3.0 OBJ File: 'final-render.blend'
# www.blender.org
mtllib walls.mtl
o Plane.003
v 7.419968 9.399515 5.286421
v -5.264380 9.399515 5.286421
v 7.419968 0.077783 5.286420
v -5.264380 0.077783 5.286420
v -5.264380 6.292271 5.286421
v -5.264380 3.185027 5.286420
v 3.191852 9.399515 5.286421
v -1.036264 9.399515 5.286421
v 7.419968 6.292271 5.286421
v 7.419968 3.185027 5.286420
v 3.191852 0.077783 5.286420
v -1.036264 0.077783 5.286420
v 3.191852 6.292271 5.286421
v -1.036264 6.292271 5.286421
v 3.191852 3.185027 5.286420
v -1.036264 3.185027 5.286420
v -5.264380 1.631405 5.286420
v -3.150322 9.399515 5.286421
v 7.419968 1.631405 5.286420
v -3.150322 0.077783 5.286420
v -5.264380 7.845893 5.286421
v -5.264380 4.738649 5.286421
v 5.305910 9.399515 5.286421
v 1.077794 9.399515 5.286421
v 7.419968 7.845893 5.286421
v 7.419968 4.738649 5.286421
v 5.305910 0.077783 5.286420
v 1.077794 0.077783 5.286420
v -3.150322 6.292271 5.286421
v 5.305910 6.292271 5.286421
v 1.077794 6.292271 5.286421
v -3.150322 3.185027 5.286420
v 5.305910 3.185027 5.286420
v 3.191852 7.845893 5.286421
v -1.036264 7.845893 5.286421
v 3.191852 4.738649 5.286421
v -1.036264 4.738649 5.286421
v 3.191852 1.631405 5.286420
v -1.036264 1.631405 5.286420
v 5.305910 1.631405 5.286420
v 1.077794 4.738649 5.286421
v 5.305910 4.738649 5.286421
v 1.077794 7.845893 5.286421
v 5.305910 7.845893 5.286421
v -3.150322 4.738649 5.286421
v -3.150322 7.845893 5.286421
v -3.150322 1.631405 5.286420
v -0.469179 9.399515 5.286421
v -0.469179 0.077783 5.286420
v -0.469179 6.292271 5.286421
v -0.469179 3.185027 5.286420
v -0.469179 1.631405 5.286420
v -0.469179 4.738649 5.286421
v -0.469179 7.845893 5.286421
v 1.935163 9.399515 5.286421
v 1.935163 0.077783 5.286420
v 1.935163 6.292271 5.286421
v 1.935163 3.185027 5.286420
v 1.935163 1.631405 5.286420
v 1.935163 4.738649 5.286421
v 1.935163 7.845893 5.286421
v -5.264380 4.386104 5.286420
v 7.419968 4.386104 5.286420
v 3.191852 4.386104 5.286420
v -1.036264 4.386104 5.286420
v 1.077794 4.386104 5.286420
v 5.305910 4.386104 5.286420
v -3.150322 4.386104 5.286420
v -0.469179 4.386104 5.286420
v 1.935163 4.386104 5.286420
vt 0.414006 0.831172
vt 0.413141 0.997406
vt 0.496807 0.997406
vt 0.497672 0.831172
vt 0.417464 0.166234
vt 0.416600 0.332469
vt 0.500265 0.332469
vt 0.501130 0.166234
vt 0.415539 0.536425
vt 0.414870 0.664937
vt 0.498536 0.664937
vt 0.499205 0.536425
vt 0.082801 0.166234
vt 0.081937 0.332469
vt 0.165602 0.332469
vt 0.166467 0.166234
vt 0.312716 0.166234
vt 0.311852 0.332469
vt 0.332934 0.332469
vt 0.333798 0.166234
vt 0.080876 0.536425
vt 0.080207 0.664937
vt 0.163873 0.664937
vt 0.164542 0.536425
vt 0.310791 0.536425
vt 0.310122 0.664937
vt 0.331205 0.664937
vt 0.331873 0.536425
vt 0.079343 0.831172
vt 0.078478 0.997406
vt 0.162144 0.997406
vt 0.163009 0.831172
vt 0.309258 0.831172
vt 0.308393 0.997406
vt 0.329475 0.997406
vt 0.330340 0.831172
vt -0.003458 0.664937
vt -0.004323 0.831172
vt -0.005188 0.997406
vt 0.310987 0.498703
vt 0.332069 0.498703
vt 0.214290 0.332469
vt 0.213425 0.498703
vt 0.248403 0.498703
vt 0.249268 0.332469
vt 0.081072 0.498703
vt 0.164738 0.498703
vt -0.001729 0.332469
vt -0.002594 0.498703
vt -0.002790 0.536425
vt 0.313581 0.000000
vt 0.334663 0.000000
vt 0.216019 0.000000
vt 0.215154 0.166234
vt 0.250133 0.166234
vt 0.250997 0.000000
vt 0.083666 0.000000
vt 0.167332 0.000000
vt 0.000000 0.000000
vt -0.000865 0.166234
vt 0.415735 0.498703
vt 0.499401 0.498703
vt 0.418329 0.000000
vt 0.501994 0.000000
vt 0.212560 0.664937
vt 0.213229 0.536425
vt 0.210831 0.997406
vt 0.211696 0.831172
vt 0.248207 0.536425
vn 0.0000 0.0000 -1.0000
usemtl Material.030
s off
f 47/1/1 20/2/1 4/3/1 17/4/1
f 46/5/1 29/6/1 5/7/1 21/8/1
f 68/9/1 32/10/1 6/11/1 62/12/1
f 44/13/1 30/14/1 13/15/1 34/16/1
f 54/17/1 50/18/1 14/19/1 35/20/1
f 67/21/1 33/22/1 15/23/1 64/24/1
f 69/25/1 51/26/1 16/27/1 65/28/1
f 40/29/1 27/30/1 11/31/1 38/32/1
f 52/33/1 49/34/1 12/35/1 39/36/1
f 51/26/1 52/33/1 39/36/1 16/27/1
f 33/22/1 40/29/1 38/32/1 15/23/1
f 10/37/1 19/38/1 40/29/1 33/22/1
f 19/38/1 3/39/1 27/30/1 40/29/1
f 50/18/1 53/40/1 37/41/1 14/19/1
f 57/42/1 60/43/1 41/44/1 31/45/1
f 30/14/1 42/46/1 36/47/1 13/15/1
f 9/48/1 26/49/1 42/46/1 30/14/1
f 63/50/1 10/37/1 33/22/1 67/21/1
f 48/51/1 54/17/1 35/20/1 8/52/1
f 55/53/1 61/54/1 43/55/1 24/56/1
f 61/54/1 57/42/1 31/45/1 43/55/1
f 23/57/1 44/13/1 34/16/1 7/58/1
f 1/59/1 25/60/1 44/13/1 23/57/1
f 25/60/1 9/48/1 30/14/1 44/13/1
f 29/6/1 45/61/1 22/62/1 5/7/1
f 14/19/1 37/41/1 45/61/1 29/6/1
f 65/28/1 16/27/1 32/10/1 68/9/1
f 18/63/1 46/5/1 21/8/1 2/64/1
f 8/52/1 35/20/1 46/5/1 18/63/1
f 35/20/1 14/19/1 29/6/1 46/5/1
f 32/10/1 47/1/1 17/4/1 6/11/1
f 16/27/1 39/36/1 47/1/1 32/10/1
f 39/36/1 12/35/1 20/2/1 47/1/1
f 24/56/1 43/55/1 54/17/1 48/51/1
f 31/45/1 41/44/1 53/40/1 50/18/1
f 43/55/1 31/45/1 50/18/1 54/17/1
f 34/16/1 13/15/1 57/42/1 61/54/1
f 7/58/1 34/16/1 61/54/1 55/53/1
f 64/24/1 15/23/1 58/65/1 70/66/1
f 13/15/1 36/47/1 60/43/1 57/42/1
f 38/32/1 11/31/1 56/67/1 59/68/1
f 15/23/1 38/32/1 59/68/1 58/65/1
f 36/47/1 64/24/1 70/66/1 60/43/1
f 41/44/1 66/69/1 69/25/1 53/40/1
f 37/41/1 65/28/1 68/9/1 45/61/1
f 26/49/1 63/50/1 67/21/1 42/46/1
f 60/43/1 70/66/1 66/69/1 41/44/1
f 53/40/1 69/25/1 65/28/1 37/41/1
f 42/46/1 67/21/1 64/24/1 36/47/1
f 45/61/1 68/9/1 62/12/1 22/62/1
l 56 28
l 28 49
o Plane.004
v -5.222881 0.150328 11.561309
v 7.452331 0.150328 11.561309
v -5.222881 0.150329 5.162724
v 7.452331 0.150329 5.162724
vt 0.000000 0.000000
vt 1.000000 0.000000
vt 1.000000 1.000000
vt 0.000000 1.000000
vn 0.0000 1.0000 0.0000
usemtl floor
s off
f 71/70/2 72/71/2 74/72/2 73/73/2
o Plane.008
v -5.242112 0.114556 5.430645
v -5.242113 0.114556 -11.812517
v -5.242112 9.321667 5.430645
v -5.242113 9.321667 -11.812517
vt 0.000000 0.000000
vt 1.000000 0.000000
vt 1.000000 1.000000
vt 0.000000 1.000000
vn 1.0000 0.0000 -0.0000
usemtl Material.004
s off
f 75/74/3 76/75/3 78/76/3 77/77/3
o Plane.007_Plane.009
v -5.348869 0.222083 5.249486
v 7.493067 0.222148 5.249377
v -5.348837 0.222047 -11.838446
v 7.493208 0.222063 -11.838470
vt 0.000000 0.000000
vt 1.000000 0.000000
vt 1.000000 1.000000
vt 0.000000 1.000000
vn -0.0000 1.0000 -0.0000
usemtl Material.009
s off
f 79/78/4 80/79/4 82/80/4 81/81/4
